<svg t="1750006935859" class="icon" viewBox="0 0 1024 1024" version="1.1"
    xmlns="http://www.w3.org/2000/svg" p-id="5665" xmlns:xlink="http://www.w3.org/1999/xlink"
    width="16" height="16">
    <path
        d="M271.475 86.033c0 26.929 6.12 52.022 18.361 75.279s29.377 43.454 51.41 60.59v198.295c-44.066 19.585-78.339 48.962-102.82 88.131a529.122 529.122 0 0 0-25.705 60.59c-7.344 20.809-11.016 43.454-11.016 67.934v33.049h275.41v220.328L513.836 960l33.049-69.771V669.902h275.41v-33.049c0-24.481-3.06-47.738-9.18-69.771s-15.301-42.229-27.541-60.59c-12.24-18.361-26.929-34.885-44.066-49.574-17.137-14.689-36.721-26.929-58.754-36.721V221.902c24.481-17.137 42.229-37.333 53.246-60.59s16.525-48.35 16.525-75.279V64h-481.05v22.033z m407.607 33.049c-2.448 7.344-6.12 14.689-11.016 22.033l-14.688 18.361c-4.896 4.896-11.016 8.568-18.361 11.016l-18.361 14.689v282.754l22.033 7.344c29.377 9.792 53.858 25.705 73.443 47.738 9.792 9.792 18.361 23.869 25.705 42.229s12.24 34.885 14.689 49.574H271.475c2.448-14.689 7.956-31.213 16.525-49.574s17.749-32.437 27.541-42.229c19.585-22.033 42.842-37.945 69.77-47.738l25.705-7.344V185.18l-22.033-14.689c-12.24-7.344-23.257-17.137-33.049-29.377l-11.016-22.033h334.164z"
        p-id="5666" fill="#ffffff"></path>
</svg>